<?xml version="1.0" encoding="UTF-8"?>
<svg id="_图层_1" data-name="图层 1" xmlns="http://www.w3.org/2000/svg" viewBox="0 0 233.93 329.62">
  <defs>
    <style>
      .cls-1 {
        fill: #c9caca;
      }
    </style>
  </defs>
  <path class="cls-1" d="M170.19,193.65l13.45,30.82c.71,1.62,2.58,2.25,3.7,1.89,1.14-.37,3.09-1.99,2.4-3.53l-14.4-32.54,7.4-2.91c2.72-1.07,2.51-4.32,1.66-6.74-2.91-8.26-7.57-15.3-13.29-21.81-2.65-3.02-5.62-5.27-9.08-7.33-.95-.56-1.12-2.66-1.04-3.67,2.77.03,5.43.07,8.01-1.2l.18-11.84c.08-5.34-9.96-2.17-16.32.38,2.81,2.29,3.8,4.71,3.23,7.96-.4,2.25-2.08,4.54-4.88,5.74l6.06,20.43c1.85,6.24,1.78,12.2-.88,18.16l-7.72,17.25c-1.57,3.5-4.38,6.42-8.46,6.46l-14.82.14c-3.18.03-6.09-.81-7.61-3.61l-3.18-5.87c-1.38-2.54-3.05-5.28-2.61-8.33,1.09-7.5,9.19-10.04,7.45-16.33-.65-2.35-2.28-4.19-5.06-4.95l-26.4-7.23c-4.15-1.14-7.68.37-10.24,3.95l-46.93.04c-1.61,0-2.32,1.44-2.09,2.56.23,1.14,1.02,1.77,2.42,1.77h11.06c1.81-.02,1.3,8.69,10.2,11.41l6.23,1.91c4.65,1.42,9.15,2.94,13.49,5.51l-13.93,30.81c-.38,1.1,1.79,3.53,2.91,3.44l32.15-3.79-3.29-5.95-23.71,2.9,11.09-24.27c7.85,5.42,12.41,15,16.83,23.55,2.42,4.67,5.97,8.02,11.31,8.12,1.97.03,3.88-.19,5.96-.21l33.53-.35c4.47-.05,7.32-4.76,8.81-8.29l4.01-9.53c3.05-5.78,6.88-10.89,12.39-14.93Z"/>
  <path class="cls-1" d="M93.86,164l29.95,8.4,6.84,31.54c.77,3.56,5.11,4.98,7.7,4.28,3.45-.92,5.35-3.86,4.81-7.6l-4.99-34.42c-.49-3.4-3.64-5.57-6.51-6.86l-17.86-7.99,4.11-9.94c-2.63-3.34-4.38-6.98-5.97-10.88-1.2-2.91-2.71-5.54-3.3-8.9l9.37,14.33c1.44,2.21,3.31,3.94,6.04,4.6l22.83,5.49c2.67.64,4.95.03,6.21-2.54.89-1.82.47-5-2.07-5.95l-21.62-8.11-5.05-10.88-4.81-9.65c-1.7-3.41-5.84-5.21-9.29-5.27-5.67-.1-10.32,3.62-13.06,8.9-5.97,11.5-10.15,23.78-12.25,36.65-1.3,6.8,2.26,12.95,8.92,14.82Z"/>
  <path class="cls-1" d="M30.75,163.62c.25,1.34,2.16,2.44,3.36,2.93h38.85c2.06-.09,4.23-1.69,4.24-4l.08-27.7H30.72s.03,28.77.03,28.77ZM44.16,147.8l6.53-.18.18-6.53,5.63-.05.31,6.57,6.54.18v5.78s-6.53.18-6.53.18l-.15,6.5-5.66.07-.31-6.56-6.54-.18v-5.78Z"/>
  <path class="cls-1" d="M110.1,98.77l17.83,9.96c1.43.8,3.33,1.88,5.13.73,2-1.27,4.39-3.14,5.41-5.25,2.53-5.25,2.83-11.15,2.78-16.96-.09-9.87-8.1-16.95-17.79-16.92-5.63.02-10.77,2.1-14.01,6.16-3.59,4.49-4.32,9.99-3.32,15.48.56,3.05,1.09,5.2,3.97,6.81ZM122.68,88.5c.25-2.62,2.35-3.67,4.64-3.21l10.83,2.17c.56,2.08.28,4.04-.17,6.31l-1.32,6.65c-6.48-2.61-14.54-5.89-13.96-11.92Z"/>
  <path class="cls-1" d="M209.72,220.63c-.7-5.73-3.32-12.07-8.5-14.82-1.88-1-4.36-.7-6.38-1.98-3.19-2.03-7.35-1.86-11.28-1.52l2.86,6.48c8.73-.22,15.01,6.91,14.51,15.51-.37,6.43-5.24,11.72-10.96,13.05-6.56,1.53-12.96-1.47-15.99-6.81-3.29-5.77-2.36-12.38,2-17.34l-2.6-5.74c-3.71,2.93-6.33,7.01-6.99,11.58-.31,2.11-1.52,3.96-2.97,5.49.04,6.86,3.54,12.39,8.55,16.68,7.32,6.27,17.81,6.85,26.26,2.02,7.62-4.36,12.63-13.23,11.49-22.6Z"/>
  <path class="cls-1" d="M81.58,226.51c-2.27.25-4.3.09-6.4,1.02-1.86,5.79-6.9,9.78-12.7,10.17-8.68.59-15.72-5.81-15.87-14.16-.15-8.32,6.51-15.06,14.96-14.81,1.55-2.39,2.96-5.71,2.55-6.16-.33-.37-.59-.33-1.32-.42-8.32-1-16.83,3.48-20.17,11.38-.99,2.34-2.32,4.32-4.36,5.76-1.7,8.4,1.95,16.7,8.15,21.81,6.48,5.34,15.36,6.84,23.15,3.8,8.01-3.13,13.37-10.17,14.81-18.38-.91-.76-2.05-.09-2.8,0Z"/>
  <path class="cls-1" d="M76.91,132.44c1.02-3.39.54-6.6-2.22-8.65l-40.62.02c-3.42,0-4.32,4.65-2.86,8.58l45.7.05Z"/>
  <path class="cls-1" d="M45.73,205.12c4.49-3.75,10.14-5.82,16.09-5.79,1.15,0,3.06,1.2,4.01-.02,1.07-1.35,1.71-3.15,2.48-4.89-14.47-3.92-28.13,3.59-34.27,16.8l-4.42,1.81c-1.12.46-1.63,1.71-1.29,2.69.31.88,1.17,1.35,2.32,1.35h4.38c5.51,0,3.94-6.3,10.7-11.95Z"/>
  <path class="cls-1" d="M78.3,199.69l-6.14,13.2c-.4.87,1.34,3.14,2.3,3.09l13.85-1.79c-2.74-5.87-5.57-10.52-10.01-14.5Z"/>
  <path class="cls-1" d="M172.17,204.64l-1.95-4.57c-.11-.26-.63-.81-.86-.78s-.48.59-.8.85c-6.89,5.76-11.18,14.27-10.97,23.49,3.47.42,5.67-2.2,6.38-5.36,1.25-5.57,4.15-10.06,8.21-13.64Z"/>
  <path class="cls-1" d="M182.58,199.67l7.57.15c5.85.12,10.52,6.89,14.34-.22-6.88-5.51-15.86-7.59-24.43-5.25.79,1.96,1.43,3.75,2.51,5.32Z"/>
</svg>