<?xml version="1.0" encoding="UTF-8"?>
<svg id="_图层_1" data-name="图层 1" xmlns="http://www.w3.org/2000/svg" viewBox="0 0 233.93 329.62">
  <defs>
    <style>
      .cls-1 {
        fill: #c9caca;
      }
    </style>
  </defs>
  <path class="cls-1" d="M201.23,59.7c-1.99-14.64-12.84-25.3-27.53-27.36H62.19c-15.23,2.41-25.72,13.52-27.53,28.79v201.4c1.79,14.27,11.41,24.88,25.61,27.52l114.88.06c13.73-2.12,23.99-12.39,26.1-26.12V59.7ZM187.73,260.95c-.04,7.59-6.63,15.64-15.28,15.64H63.4c-7.95,0-13.82-7.45-14.61-14.38l-.3-16.97c2.22-.17,3.79.5,5.79.49l42.4-.09c1.85,0,3.31-.08,5.15-.08l19.55.03c3.6,0,6.93-.25,11.02-.17l4.66.08,17.94.11h23.35s9.47-.32,9.47-.32l-.08,15.66ZM48.57,231.8V61.58c.96-7.49,5.93-13.82,13.52-15.04l18.47-.12c.29,11.75,8.14,22.11,20.09,22.92l35.31.16c3.5.02,7.76-2.13,10.16-4.09,5.98-4.86,9.38-10.83,9.57-19.16l18.07.24c8.54,1.29,13.19,8.18,14.12,16.64l.07,168.66H48.57Z"/>
  <path class="cls-1" d="M132.11,254.07l-28.26.07c-4.06.01-6.52,3.66-6.58,7.15-.05,3.19,2.78,6.55,6.45,6.56l29.54.08c2.78-.96,4.93-2.11,5.35-5.46.53-4.23-2.16-8.41-6.5-8.4Z"/>
  <path class="cls-1" d="M172.5,204.71l-3.7-19.62c-1.36-7.21-5.62-13.4-12.34-16.2l-16.1-6.72c-1.9-.79-3.17-2.83-5.09-3.78-1.65-.81,0-2.97.8-3.71,3.93-3.63,5.93-8.18,7.98-12.88,5.37-3.49,8.47-10.53,6-16.58-.74-1.82-2.1-3.23-1.42-5.59,2.06-7.09-.56-19.2-7.64-23.24-4.49-2.56-6.39-10.61-22.69-10.35-8.42.13-15.39,1.2-20.22,8.4-10.46,4.09-12.11,17.3-10.37,27.98-4.85,6.4-2.22,14.97,4.43,19.09,1.95,7.3,9.26,13.91,9.05,15.83-.13,1.2-5.89,5.79-7.9,6.42-3.69,1.15-7.01,2.6-10.64,3.95-7.86,2.92-13.82,9.18-15.32,17.61l-3.71,20.85c-.51,6.19,5.65,12.8,12.4,12.79l85.02-.09c7.26,0,12.65-7.87,11.46-14.17ZM142.92,185.35c1.95-.42,3.73,1.19,3.89,2.5.22,1.87-1.07,3.48-2.46,3.93-1.91.62-3.45-.75-3.85-2.24-.48-1.79.21-3.71,2.43-4.19ZM97.81,138.21c-.58-1.67-2.57-2.12-3.76-3.19-2.43-2.2-3.81-7.75-.53-8.74.51-.15,1.06.74,2.37,1.19.17-3.68.99-7.82,4.22-10.06,4.45-3.1,19.66,2.84,32.8-5.77,2.61,6.69,7.87,8.89,6.97,15.45l3.77-.41c2.75,8.67-4.26,9.08-5.16,11.4-1.92,4.98-4.33,10.13-8.49,13.77-8.31,7.26-19.14,5.7-25.92-2.21-2.87-3.35-4.78-7.14-6.26-11.43ZM130.99,165.33l-12.91,15.81-13.23-16.01,2.75-4.85c6.49,3.43,13.93,3.38,20.79.39,1.47,1.19,2.16,2.84,2.6,4.67ZM164.51,210.44c-1.02.79-2.81,2.28-4.8,2.28h-76.21c-2.28,0-3.87-.5-6.16-.28-3.28.32-7.88-2.35-7.21-5.93l4.21-22.48c1.28-6.86,9.65-10.24,16.11-12.31-.36,2.6-.76,4.09-.82,6.19-9.92,2.7-9.27,10.65-11.1,19.24-1.08,5.08,1.29,9.4,6.56,10.34,1.87.33,3.77-.28,4.39-2.31,1.03-3.36-4.24-3.95-4.53-4.39-.28-.44-.47-1.2-.36-1.92l1.3-8.26c.38-2.42,1.39-4.6,3.05-5.63,2.17-1.35,4.85-2.06,7.17-.67,2.32,1.39,3.51,4.26,3.84,6.86l1.26,9.72c-2.01.43-4.07.79-4.94,2.68-.55,1.2.41,2.51,1.08,3.17,1.12,1.1,2.41.91,3.89.6,4.98-1.04,7.07-5.32,5.98-10.07-1.98-8.64-.71-16.07-11.2-19.4-.05-3.51.99-6.92,3.03-9.7l16.14,19.16c.81.96,1.79,1.95,2.78,2.06,1.2.14,2.18-.73,3.02-1.77l15.87-19.52c2.79,3.8,3.08,7.75,3.16,11.59-4.81,2.13-6.75,6.41-5.8,11.07.89,4.36,4.96,7.47,9.64,7.4,4.49-.07,8.35-3.13,9.09-7.39.82-4.75-1.24-9.4-6.04-11.07l-1.45-8.3,8.26,3.48c2.73,1.15,5.32,3.68,6.86,6.26,1.82,3.04,2.11,6.63,2.72,10.04l2.49,14.02c.31,1.72.03,4.23-1.28,5.23Z"/>
</svg>