<?xml version="1.0" encoding="UTF-8"?>
<svg id="_图层_1" xmlns="http://www.w3.org/2000/svg" version="1.1" viewBox="0 0 214.98 211.55">
  <!-- Generator: Adobe Illustrator 30.5.1, SVG Export Plug-In . SVG Version: 2.1.4 Build 3)  -->
  <defs>
    <style>
      .st0 {
        fill: #c9caca;
      }
    </style>
  </defs>
  <path class="st0" d="M179.29,88.86c-3.65,0-6.33,2.4-6.82,5.58-.35,2.25,1.18,4.39,3.59,4.42l26.22.35c3.56.05,6.71,3.55,5.89,6.97l-4.56,19.07c-.99,4.14-5.95,6.85-10.3,6.85l-84.92.06,5.15-21.5-12.48-.19,2.81-11.87,12.5-.09,5.3-21.89h27.02l-10.44,43.7,40.18-.07c2.93,0,5.36-2.15,6.27-4.6.35-1.41.27-2.67-.45-3.8-.53-.83-1.87-1.67-3.33-1.68l-26.37-.21c-3.92-.03-6.97-3.85-6.04-7.54l4.8-18.9c1.03-4.04,6.11-6.7,10.28-6.71l51.39-.11-2.93,12.08-32.76.06v.02Z"/>
  <path class="st0" d="M29.9,113.02c-.88,3.91,2.62,6.75,6.17,7.34l23.54.07-2.58,11.76-50.42-.12c-3.37,0-7.31-3.37-6.5-6.87l9.49-41.16c.97-4.2,6.14-7.21,10.42-7.21l82.43-.1-12.66,55.4-27.1.05,10.01-43.64-28.38.07c-4.56,0-8.38,2.91-10.44,6.76l-3.97,17.66h-.01Z"/>
  <path class="st0" d="M43.54,36.47c-.05,4.12-3.36,6.71-6.81,6.62s-6.54-2.86-6.52-6.75C30.31,16.19,46.57,0,66.67,0,70.41,0,73.18,2.93,73.31,6.41s-2.61,6.88-6.56,6.91c-12.8.1-23.05,10.11-23.22,23.15h.01Z"/>
  <path class="st0" d="M168.93,36.92c-.1-13.17-10.24-23.5-23.31-23.59-3.75-.03-6.47-3.1-6.55-6.52C138.99,3.18,141.83.01,145.71,0c20.11,0,36.36,16.19,36.47,36.34.02,3.72-2.71,6.4-6.06,6.72s-7.16-2.06-7.19-6.14Z"/>
  <path class="st0" d="M66.48,198.19c4.12.07,6.74,3.04,6.84,6.56.1,3.52-2.77,6.8-6.64,6.8-20.1,0-36.36-16.2-36.46-36.35-.02-3.89,2.95-6.65,6.53-6.75,3.37-.1,6.75,2.53,6.77,6.37.05,12.65,9.85,23.16,22.97,23.37h0Z"/>
  <path class="st0" d="M145.97,211.55c-4.05.04-6.74-2.94-6.89-6.43s2.63-6.88,6.55-6.9c13.03-.07,23.22-10.48,23.26-23.41,0-3.83,3.4-6.47,6.77-6.37,3.56.11,6.55,2.85,6.53,6.75-.11,19.96-16.07,36.16-36.21,36.36h-.01Z"/>
</svg>