<?xml version="1.0" encoding="UTF-8"?>
<svg id="_图层_1" data-name="图层 1" xmlns="http://www.w3.org/2000/svg" viewBox="0 0 512.95 699.07">
  <defs>
    <style>
      .cls-1 {
        fill: #c9caca;
      }
    </style>
  </defs>
  <path class="cls-1" d="M166.58,27.37C164.59,12.74,153.74,2.07,139.05,0H27.54C12.31,2.42,1.82,13.53,0,28.8v201.4c1.79,14.27,11.41,24.88,25.61,27.52l114.88.06c13.73-2.12,23.99-12.39,26.1-26.12V27.37ZM153.08,228.62c-.04,7.59-6.63,15.64-15.28,15.64H28.75c-7.95,0-13.82-7.45-14.61-14.38l-.3-16.97c2.22-.17,3.79.5,5.79.49l42.4-.09c1.85,0,3.31-.08,5.15-.08l19.55.03c3.6,0,6.93-.25,11.02-.17l4.66.08,17.94.11h23.35s9.47-.32,9.47-.32l-.08,15.66ZM13.92,199.48V29.25c.96-7.49,5.93-13.82,13.52-15.04l18.47-.12c.29,11.75,8.14,22.11,20.09,22.92l35.31.16c3.5.02,7.76-2.13,10.16-4.09,5.98-4.86,9.38-10.83,9.57-19.16l18.07.24c8.54,1.29,13.19,8.18,14.12,16.64l.07,168.66H13.92Z"/>
  <path class="cls-1" d="M97.46,221.74l-28.26.07c-4.06.01-6.52,3.66-6.58,7.15-.05,3.19,2.78,6.55,6.45,6.56l29.54.08c2.78-.96,4.93-2.11,5.35-5.46.53-4.23-2.16-8.41-6.5-8.4Z"/>
  <path class="cls-1" d="M137.85,172.38l-3.7-19.62c-1.36-7.21-5.62-13.4-12.34-16.2l-16.1-6.72c-1.9-.79-3.17-2.83-5.09-3.78-1.65-.81,0-2.97.8-3.71,3.93-3.63,5.93-8.18,7.98-12.88,5.37-3.49,8.47-10.53,6-16.58-.74-1.82-2.1-3.23-1.42-5.59,2.06-7.09-.56-19.2-7.64-23.24-4.49-2.56-6.39-10.61-22.69-10.35-8.42.13-15.39,1.2-20.22,8.4-10.46,4.09-12.11,17.3-10.37,27.98-4.85,6.4-2.22,14.97,4.43,19.09,1.95,7.3,9.26,13.91,9.05,15.83-.13,1.2-5.89,5.79-7.9,6.42-3.69,1.15-7.01,2.6-10.64,3.95-7.86,2.92-13.82,9.18-15.32,17.61l-3.71,20.85c-.51,6.19,5.65,12.8,12.4,12.79l85.02-.09c7.26,0,12.65-7.87,11.46-14.17ZM108.27,153.03c1.95-.42,3.73,1.19,3.89,2.5.22,1.87-1.07,3.48-2.46,3.93-1.91.62-3.45-.75-3.85-2.24-.48-1.79.21-3.71,2.43-4.19ZM63.16,105.89c-.58-1.67-2.57-2.12-3.76-3.19-2.43-2.2-3.81-7.75-.53-8.74.51-.15,1.06.74,2.37,1.19.17-3.68.99-7.82,4.22-10.06,4.45-3.1,19.66,2.84,32.8-5.77,2.61,6.69,7.87,8.89,6.97,15.45l3.77-.41c2.75,8.67-4.26,9.08-5.16,11.4-1.92,4.98-4.33,10.13-8.49,13.77-8.31,7.26-19.14,5.7-25.92-2.21-2.87-3.35-4.78-7.14-6.26-11.43ZM96.34,133.01l-12.91,15.81-13.23-16.01,2.75-4.85c6.49,3.43,13.93,3.38,20.79.39,1.47,1.19,2.16,2.84,2.6,4.67ZM129.86,178.12c-1.02.79-2.81,2.28-4.8,2.28H48.86c-2.28,0-3.87-.5-6.16-.28-3.28.32-7.88-2.35-7.21-5.93l4.21-22.48c1.28-6.86,9.65-10.24,16.11-12.31-.36,2.6-.76,4.09-.82,6.19-9.92,2.7-9.27,10.65-11.1,19.24-1.08,5.08,1.29,9.4,6.56,10.34,1.87.33,3.77-.28,4.39-2.31,1.03-3.36-4.24-3.95-4.53-4.39-.28-.44-.47-1.2-.36-1.92l1.3-8.26c.38-2.42,1.39-4.6,3.05-5.63,2.17-1.35,4.85-2.06,7.17-.67,2.32,1.39,3.51,4.26,3.84,6.86l1.26,9.72c-2.01.43-4.07.79-4.94,2.68-.55,1.2.41,2.51,1.08,3.17,1.12,1.1,2.41.91,3.89.6,4.98-1.04,7.07-5.32,5.98-10.07-1.98-8.64-.71-16.07-11.2-19.4-.05-3.51.99-6.92,3.03-9.7l16.14,19.16c.81.96,1.79,1.95,2.78,2.06,1.2.14,2.18-.73,3.02-1.77l15.87-19.52c2.79,3.8,3.08,7.75,3.16,11.59-4.81,2.13-6.75,6.41-5.8,11.07.89,4.36,4.96,7.47,9.64,7.4,4.49-.07,8.35-3.13,9.09-7.39.82-4.75-1.24-9.4-6.04-11.07l-1.45-8.3,8.26,3.48c2.73,1.15,5.32,3.68,6.86,6.26,1.82,3.04,2.11,6.63,2.72,10.04l2.49,14.02c.31,1.72.03,4.23-1.28,5.23Z"/>
  <g>
    <path class="cls-1" d="M456.3,161.33l13.45,30.82c.71,1.62,2.58,2.25,3.7,1.89,1.14-.37,3.09-1.99,2.4-3.53l-14.4-32.54,7.4-2.91c2.72-1.07,2.51-4.32,1.66-6.74-2.91-8.26-7.57-15.3-13.29-21.81-2.65-3.02-5.62-5.27-9.08-7.33-.95-.56-1.12-2.66-1.04-3.67,2.77.03,5.43.07,8.01-1.2l.18-11.84c.08-5.34-9.96-2.17-16.32.38,2.81,2.29,3.8,4.71,3.23,7.96-.4,2.25-2.08,4.54-4.88,5.74l6.06,20.43c1.85,6.24,1.78,12.2-.88,18.16l-7.72,17.25c-1.57,3.5-4.38,6.42-8.46,6.46l-14.82.14c-3.18.03-6.09-.81-7.61-3.61l-3.18-5.87c-1.38-2.54-3.05-5.28-2.61-8.33,1.09-7.5,9.19-10.04,7.45-16.33-.65-2.35-2.28-4.19-5.06-4.95l-26.4-7.23c-4.15-1.14-7.68.37-10.24,3.95l-46.93.04c-1.61,0-2.32,1.44-2.09,2.56.23,1.14,1.02,1.77,2.42,1.77h11.06c1.81-.02,1.3,8.69,10.2,11.41l6.23,1.91c4.65,1.42,9.15,2.94,13.49,5.51l-13.93,30.81c-.38,1.1,1.79,3.53,2.91,3.44l32.15-3.79-3.29-5.95-23.71,2.9,11.09-24.27c7.85,5.42,12.41,15,16.83,23.55,2.42,4.67,5.97,8.02,11.31,8.12,1.97.03,3.88-.19,5.96-.21l33.53-.35c4.47-.05,7.32-4.76,8.81-8.29l4.01-9.53c3.05-5.78,6.88-10.89,12.39-14.93Z"/>
    <path class="cls-1" d="M379.97,131.67l29.95,8.4,6.84,31.54c.77,3.56,5.11,4.98,7.7,4.28,3.45-.92,5.35-3.86,4.81-7.6l-4.99-34.42c-.49-3.4-3.64-5.57-6.51-6.86l-17.86-7.99,4.11-9.94c-2.63-3.34-4.38-6.98-5.97-10.88-1.2-2.91-2.71-5.54-3.3-8.9l9.37,14.33c1.44,2.21,3.31,3.94,6.04,4.6l22.83,5.49c2.67.64,4.95.03,6.21-2.54.89-1.82.47-5-2.07-5.95l-21.62-8.11-5.05-10.88-4.81-9.65c-1.7-3.41-5.84-5.21-9.29-5.27-5.67-.1-10.32,3.62-13.06,8.9-5.97,11.5-10.15,23.78-12.25,36.65-1.3,6.8,2.26,12.95,8.92,14.82Z"/>
    <path class="cls-1" d="M316.86,131.3c.25,1.34,2.16,2.44,3.36,2.93h38.85c2.06-.09,4.23-1.69,4.24-4l.08-27.7h-46.55s.03,28.77.03,28.77ZM330.27,115.48l6.53-.18.18-6.53,5.63-.05.31,6.57,6.54.18v5.78s-6.53.18-6.53.18l-.15,6.5-5.66.07-.31-6.56-6.54-.18v-5.78Z"/>
    <path class="cls-1" d="M396.22,66.45l17.83,9.96c1.43.8,3.33,1.88,5.13.73,2-1.27,4.39-3.14,5.41-5.25,2.53-5.25,2.83-11.15,2.78-16.96-.09-9.87-8.1-16.95-17.79-16.92-5.63.02-10.77,2.1-14.01,6.16-3.59,4.49-4.32,9.99-3.32,15.48.56,3.05,1.09,5.2,3.97,6.81ZM408.79,56.17c.25-2.62,2.35-3.67,4.64-3.21l10.83,2.17c.56,2.08.28,4.04-.17,6.31l-1.32,6.65c-6.48-2.61-14.54-5.89-13.96-11.92Z"/>
    <path class="cls-1" d="M495.83,188.31c-.7-5.73-3.32-12.07-8.5-14.82-1.88-1-4.36-.7-6.38-1.98-3.19-2.03-7.35-1.86-11.28-1.52l2.86,6.48c8.73-.22,15.01,6.91,14.51,15.51-.37,6.43-5.24,11.72-10.96,13.05-6.56,1.53-12.96-1.47-15.99-6.81-3.29-5.77-2.36-12.38,2-17.34l-2.6-5.74c-3.71,2.93-6.33,7.01-6.99,11.58-.31,2.11-1.52,3.96-2.97,5.49.04,6.86,3.54,12.39,8.55,16.68,7.32,6.27,17.81,6.85,26.26,2.02,7.62-4.36,12.63-13.23,11.49-22.6Z"/>
    <path class="cls-1" d="M367.69,194.19c-2.27.25-4.3.09-6.4,1.02-1.86,5.79-6.9,9.78-12.7,10.17-8.68.59-15.72-5.81-15.87-14.16-.15-8.32,6.51-15.06,14.96-14.81,1.55-2.39,2.96-5.71,2.55-6.16-.33-.37-.59-.33-1.32-.42-8.32-1-16.83,3.48-20.17,11.38-.99,2.34-2.32,4.32-4.36,5.76-1.7,8.4,1.95,16.7,8.15,21.81,6.48,5.34,15.36,6.84,23.15,3.8,8.01-3.13,13.37-10.17,14.81-18.38-.91-.76-2.05-.09-2.8,0Z"/>
    <path class="cls-1" d="M363.03,100.11c1.02-3.39.54-6.6-2.22-8.65l-40.62.02c-3.42,0-4.32,4.65-2.86,8.58l45.7.05Z"/>
    <path class="cls-1" d="M331.85,172.79c4.49-3.75,10.14-5.82,16.09-5.79,1.15,0,3.06,1.2,4.01-.02,1.07-1.35,1.71-3.15,2.48-4.89-14.47-3.92-28.13,3.59-34.27,16.8l-4.42,1.81c-1.12.46-1.63,1.71-1.29,2.69.31.88,1.17,1.35,2.32,1.35h4.38c5.51,0,3.94-6.3,10.7-11.95Z"/>
    <path class="cls-1" d="M364.41,167.37l-6.14,13.2c-.4.87,1.34,3.14,2.3,3.09l13.85-1.79c-2.74-5.87-5.57-10.52-10.01-14.5Z"/>
    <path class="cls-1" d="M458.28,172.32l-1.95-4.57c-.11-.26-.63-.81-.86-.78s-.48.59-.8.85c-6.89,5.76-11.18,14.27-10.97,23.49,3.47.42,5.67-2.2,6.38-5.36,1.25-5.57,4.15-10.06,8.21-13.64Z"/>
    <path class="cls-1" d="M468.69,167.34l7.57.15c5.85.12,10.52,6.89,14.34-.22-6.88-5.51-15.86-7.59-24.43-5.25.79,1.96,1.43,3.75,2.51,5.32Z"/>
  </g>
  <g>
    <path class="cls-1" d="M477.26,576.39c-3.65,0-6.33,2.4-6.82,5.58-.35,2.25,1.18,4.39,3.59,4.42l26.22.35c3.56.05,6.71,3.55,5.89,6.97l-4.56,19.07c-.99,4.14-5.95,6.85-10.3,6.85l-84.92.06,5.15-21.5-12.48-.19,2.81-11.87,12.5-.09,5.3-21.89h27.02s-10.44,43.7-10.44,43.7l40.18-.07c2.93,0,5.36-2.15,6.27-4.6.35-1.41.27-2.67-.45-3.8-.53-.83-1.87-1.67-3.33-1.68l-26.37-.21c-3.92-.03-6.97-3.85-6.04-7.54l4.8-18.9c1.03-4.04,6.11-6.7,10.28-6.71l51.39-.11-2.93,12.08-32.76.06Z"/>
    <path class="cls-1" d="M327.86,600.54c-.88,3.91,2.62,6.75,6.17,7.34l23.54.07-2.58,11.76-50.42-.12c-3.37,0-7.31-3.37-6.5-6.87l9.49-41.16c.97-4.2,6.14-7.21,10.42-7.21l82.43-.1-12.66,55.4-27.1.05,10.01-43.64-28.38.07c-4.56.01-8.38,2.91-10.44,6.76l-3.97,17.66Z"/>
    <path class="cls-1" d="M341.5,523.99c-.05,4.12-3.36,6.71-6.81,6.62s-6.54-2.86-6.52-6.75c.1-20.15,16.36-36.35,36.46-36.34,3.74,0,6.51,2.93,6.64,6.41s-2.61,6.88-6.56,6.91c-12.8.1-23.05,10.11-23.22,23.15Z"/>
    <path class="cls-1" d="M466.89,524.44c-.1-13.17-10.24-23.5-23.31-23.59-3.75-.03-6.47-3.1-6.55-6.52-.08-3.63,2.76-6.8,6.64-6.81,20.11-.01,36.36,16.19,36.47,36.34.02,3.72-2.71,6.4-6.06,6.72s-7.16-2.06-7.19-6.14Z"/>
    <path class="cls-1" d="M364.45,685.71c4.12.07,6.74,3.04,6.84,6.56s-2.77,6.8-6.64,6.8c-20.1,0-36.36-16.2-36.46-36.35-.02-3.89,2.95-6.65,6.53-6.75,3.37-.1,6.75,2.53,6.77,6.37.05,12.65,9.85,23.16,22.97,23.37Z"/>
    <path class="cls-1" d="M443.93,699.07c-4.05.04-6.74-2.94-6.89-6.43s2.63-6.88,6.55-6.9c13.03-.07,23.22-10.48,23.26-23.41,0-3.83,3.4-6.47,6.77-6.37,3.56.11,6.55,2.85,6.53,6.75-.11,19.96-16.07,36.16-36.21,36.36Z"/>
  </g>
</svg>